<?xml version="1.0" encoding="UTF-8"?>
<svg version="1.1" xmlns="http://www.w3.org/2000/svg" width="500" height="500">
<path d="M0 0 C165 0 330 0 500 0 C500 165 500 330 500 500 C335 500 170 500 0 500 C0 335 0 170 0 0 Z " fill="#FEFEFE" transform="translate(0,0)"/>
<path d="M0 0 C2.07035903 1.56867099 2.89887613 2.40826228 3.34057617 4.99291992 C3.32486572 5.73131104 3.30915527 6.46970215 3.29296875 7.23046875 C3.28330078 8.03291016 3.27363281 8.83535156 3.26367188 9.66210938 C3.23853516 10.49548828 3.21339844 11.32886719 3.1875 12.1875 C3.16719727 13.4549707 3.16719727 13.4549707 3.14648438 14.74804688 C3.11115799 16.83230384 3.05735139 18.91623277 3 21 C2.30588516 21.07294785 1.61177032 21.14589569 0.8966217 21.22105408 C-5.67872074 21.91213616 -12.25403606 22.60347558 -18.82932186 23.2950964 C-22.20887245 23.65056514 -25.58843305 24.00593807 -28.96801758 24.36108398 C-32.86282389 24.77037673 -36.75758478 25.18010071 -40.65234375 25.58984375 C-41.8526976 25.71592514 -43.05305145 25.84200653 -44.28977966 25.97190857 C-45.43028275 26.09195755 -46.57078583 26.21200653 -47.74584961 26.33569336 C-48.73846298 26.4400621 -49.73107635 26.54443085 -50.75376892 26.65196228 C-54.83714745 27.08975297 -58.91861998 27.54400285 -63 28 C-61.14077408 28.00213753 -61.14077408 28.00213753 -59.24398804 28.00431824 C-47.56105785 28.02099017 -35.87847588 28.06377014 -24.19573021 28.13209057 C-18.18951807 28.16637624 -12.18356073 28.19147307 -6.17724609 28.19555664 C-0.38040067 28.19983609 5.41586981 28.22827042 11.21253586 28.27343178 C13.42366563 28.28641793 15.63486416 28.29071053 17.84602737 28.28615379 C20.94436924 28.28125598 24.04102551 28.30730551 27.13916016 28.34057617 C28.05266235 28.33195053 28.96616455 28.32332489 29.90734863 28.31443787 C34.238956 28.39237384 37.11486577 28.64062836 40.55380249 31.41621399 C43.64207014 34.67818394 44.12659541 36.01068842 44.09765625 40.3515625 C44.09515869 41.11807129 44.09266113 41.88458008 44.09008789 42.67431641 C44.08098389 43.64804199 44.07187988 44.62176758 44.0625 45.625 C44.041875 48.71875 44.02125 51.8125 44 55 C26.675 55.495 26.675 55.495 9 56 C9 57.65 9 59.3 9 61 C10.31718018 61.01458252 11.63436035 61.02916504 12.99145508 61.04418945 C17.87259238 61.10210713 22.75326518 61.17934036 27.6340332 61.26245117 C29.74756336 61.29573128 31.86118306 61.32375353 33.97485352 61.34643555 C37.01096806 61.37992472 40.04625975 61.43223764 43.08203125 61.48828125 C44.02899368 61.49467117 44.97595612 61.5010611 45.95161438 61.50764465 C46.83230087 61.52743881 47.71298737 61.54723297 48.62036133 61.56762695 C49.39535477 61.57873001 50.17034821 61.58983307 50.96882629 61.60127258 C53.55530747 62.10900905 54.44650341 62.89251387 56 65 C56.31038716 67.76366474 56.44423763 70.29764592 56.43359375 73.0625 C56.4388356 73.85019775 56.44407745 74.63789551 56.44947815 75.44946289 C56.45589751 77.11375754 56.45456241 78.77809757 56.44604492 80.44238281 C56.43752989 82.99105402 56.46630199 85.53748754 56.49804688 88.0859375 C56.49965886 89.70312433 56.49908142 91.32031513 56.49609375 92.9375 C56.50732773 93.70006104 56.51856171 94.46262207 56.53013611 95.24829102 C56.48851418 98.40217429 56.42895386 100.46557761 54.41723633 102.97192383 C51.14056143 104.36552831 48.38726862 104.43878548 44.828125 104.51171875 C44.1457074 104.52966995 43.46328979 104.54762115 42.76019287 104.56611633 C40.5901906 104.62010383 38.42040675 104.65407583 36.25 104.6875 C34.77470926 104.72068352 33.29944731 104.75517415 31.82421875 104.79101562 C28.21635573 104.87582158 24.60841638 104.94268837 21 105 C20.40929986 106.94603274 20.40929986 106.94603274 20 109 C21.68300669 110.68300669 23.82008727 110.22809077 26.12890625 110.31640625 C27.16337891 110.35830078 28.19785156 110.40019531 29.26367188 110.44335938 C30.35228516 110.48267578 31.44089844 110.52199219 32.5625 110.5625 C33.65498047 110.60568359 34.74746094 110.64886719 35.87304688 110.69335938 C38.58189564 110.79982068 41.29083992 110.90183516 44 111 C44.08120751 113.89640118 44.14059421 116.79050912 44.1875 119.6875 C44.21263672 120.50412109 44.23777344 121.32074219 44.26367188 122.16210938 C44.32178809 126.94701082 44.17342599 130.15623234 41 134 C38.01771102 136.65091235 36.16144897 137.37672097 32.18678284 137.39440918 C31.22088226 137.40575897 30.25498169 137.41710876 29.2598114 137.42880249 C28.2067128 137.42587189 27.1536142 137.42294128 26.06860352 137.41992188 C24.95439026 137.42839142 23.840177 137.43686096 22.69219971 137.44558716 C19.00431953 137.46901092 15.31685523 137.46997801 11.62890625 137.46875 C9.0682712 137.47584816 6.50763775 137.48354665 3.94700623 137.49182129 C-1.42218059 137.50527842 -6.79121345 137.50701009 -12.16040039 137.50097656 C-18.36245329 137.49433526 -24.56391152 137.5172041 -30.76584381 137.55429029 C-36.73740078 137.5887003 -42.70877445 137.59532312 -48.68043709 137.59120178 C-51.21900263 137.59289712 -53.75757571 137.6025791 -56.29607964 137.62034607 C-59.84427114 137.64244675 -63.39102298 137.63287732 -66.93920898 137.61523438 C-67.99028336 137.62849762 -69.04135773 137.64176086 -70.12428284 137.65542603 C-77.25101188 137.57296457 -77.25101188 137.57296457 -81.14979553 134.5904541 C-83.46210364 131.35301298 -83.72921588 129.77839351 -83.50390625 125.93359375 C-82.65742469 122.68546682 -80.53910265 121.04366799 -78 119 C-77.67 118.67 -77.34 118.34 -77 118 C-74.5278318 117.86467691 -72.0796251 117.78947957 -69.60546875 117.75390625 C-68.07746844 117.72095804 -66.54947379 117.68774656 -65.02148438 117.65429688 C-62.60542842 117.60693285 -60.18939381 117.56253083 -57.77319336 117.52319336 C-55.44620132 117.48340554 -53.11969308 117.43186588 -50.79296875 117.37890625 C-50.07304245 117.3704921 -49.35311615 117.36207794 -48.6113739 117.35340881 C-44.9419507 117.26323055 -42.08345488 117.09134985 -39 115 C-36.90320597 112.30412197 -37.00489179 110.907056 -37.1875 107.4375 C-37.97512282 104.10524961 -38.29681613 102.94629239 -41 101 C-43.98556376 99.50721812 -46.70209871 99.86698086 -50.0324707 99.8581543 C-50.75624908 99.85467987 -51.48002747 99.85120544 -52.22573853 99.84762573 C-53.79992719 99.84026626 -55.37412624 99.83492189 -56.94832802 99.83133507 C-59.44091351 99.82417528 -61.93330148 99.80851215 -64.42582703 99.78999329 C-71.51359332 99.73750315 -78.60125254 99.68955097 -85.68920898 99.67407227 C-90.022983 99.66398689 -94.35626194 99.63464745 -98.68984032 99.59275246 C-100.34078411 99.580444 -101.99179785 99.57532093 -103.64278603 99.57755089 C-105.95550915 99.57990574 -108.26681433 99.55772562 -110.5793457 99.5300293 C-111.89457718 99.52416306 -113.20980865 99.51829681 -114.56489563 99.51225281 C-118.53751197 98.91984464 -120.18419053 97.80663778 -123 95 C-124.57898053 91.84203893 -124.81928171 88.39329364 -124 85 C-121.93772095 82.11481575 -120.2953197 80.26015396 -116.72616577 79.5433197 C-113.86962919 79.37422272 -111.04882625 79.36057642 -108.1875 79.3984375 C-106.61778442 79.38642807 -106.61778442 79.38642807 -105.01635742 79.37417603 C-101.67717668 79.35111349 -98.33921352 79.36056952 -95 79.375 C-91.66101476 79.37884787 -88.32256732 79.3754074 -84.98364258 79.35440063 C-82.90799164 79.34231571 -80.83218974 79.34497347 -78.7565918 79.36410522 C-71.87371656 79.37627981 -71.87371656 79.37627981 -66 76 C-64.43528767 72.87057535 -64.30298042 69.38917777 -65 66 C-66.48896745 63.75079877 -66.48896745 63.75079877 -69 62 C-71.80696003 61.58213298 -74.23851941 61.39525687 -77.046875 61.390625 C-77.81807678 61.37408875 -78.58927856 61.35755249 -79.3838501 61.34051514 C-81.83931454 61.29205407 -84.29415984 61.27066963 -86.75 61.25 C-88.41799987 61.22183854 -90.08597092 61.19191086 -91.75390625 61.16015625 C-95.8358865 61.08629628 -99.91752345 61.03671064 -104 61 C-104.14883585 56.81923925 -104.25743418 52.63989863 -104.32958984 48.45727539 C-104.35967954 47.0361036 -104.40056404 45.61511628 -104.45263672 44.19458008 C-104.86556012 32.63677298 -104.86556012 32.63677298 -102.95849609 29.03051758 C-99.22231289 25.5792975 -93.68351482 24.34904818 -88.875 23.0625 C-87.06628783 22.54989682 -85.25769714 22.03686485 -83.44921875 21.5234375 C-82.53446777 21.26916992 -81.6197168 21.01490234 -80.67724609 20.75292969 C-76.66243676 19.62383321 -72.67694752 18.40253057 -68.6875 17.1875 C-62.59521438 15.3490913 -56.48999776 13.55817972 -50.375 11.796875 C-49.70241653 11.60285599 -49.02983307 11.40883698 -48.33686829 11.2089386 C-45.00070869 10.24679787 -41.66369685 9.28784466 -38.32495117 8.3347168 C-30.55166607 6.09721901 -22.8812988 3.66938344 -15.2355957 1.03540039 C-9.70897419 -0.73313517 -5.74849809 -1.27744402 0 0 Z " fill="#805FFA" transform="translate(284,131)"/>
<path d="M0 0 C5.9090625 -0.12375 5.9090625 -0.12375 11.9375 -0.25 C13.16073975 -0.28641602 14.38397949 -0.32283203 15.64428711 -0.36035156 C22.55164598 -0.42986804 28.07781914 0.25453427 34 4 C36.23589787 6.36742127 36.9461671 7.71570071 37.08203125 10.95703125 C36.8256301 14.69217232 36.36436313 16.55834772 33.9375 19.5 C33.298125 19.995 32.65875 20.49 32 21 C32.969375 21.78375 33.93875 22.5675 34.9375 23.375 C36.83962346 24.91288705 37.89629957 25.79259913 39 28 C39.27046812 31.58370253 39.25938588 34.30290045 38 37.6875 C34.30890299 41.95533092 30.24868294 43.77972154 24.72265625 44.32104492 C20.97203959 44.39295866 17.25035062 44.34832706 13.5 44.25 C9.045 44.1675 4.59 44.085 0 44 C0 29.48 0 14.96 0 0 Z " fill="#08113E" transform="translate(122,289)"/>
<path d="M0 0 C0.99174728 0.00424484 1.98349457 0.00848969 3.0052948 0.01286316 C6.1639656 0.02961752 9.32199172 0.06726427 12.48046875 0.10546875 C14.62564181 0.12051976 16.7708249 0.13420743 18.91601562 0.14648438 C24.16711313 0.17695496 29.41682175 0.23568351 34.66796875 0.29296875 C34.66796875 9.53296875 34.66796875 18.77296875 34.66796875 28.29296875 C28.36840624 28.38493317 22.07118399 28.46453247 15.77148438 28.51269531 C13.62980241 28.53277763 11.48817505 28.56004912 9.34667969 28.59472656 C6.2635346 28.64339273 3.18111613 28.66597165 0.09765625 28.68359375 C-0.85569611 28.70423889 -1.80904846 28.72488403 -2.79129028 28.74615479 C-8.48608689 28.74806547 -11.85762613 28.18337051 -16.33203125 24.29296875 C-19.63002241 19.56584809 -20.23582353 14.89648091 -19.33203125 9.29296875 C-14.8798508 0.38860786 -9.09175553 -0.14686847 0 0 Z " fill="#FDFBFE" transform="translate(299.33203125,199.70703125)"/>
<path d="M0 0 C2.5625 1.5625 2.5625 1.5625 3.5625 2.5625 C3.8925 1.5725 4.2225 0.5825 4.5625 -0.4375 C6.8725 -0.4375 9.1825 -0.4375 11.5625 -0.4375 C11.63695407 4.29472455 11.6912447 9.02660411 11.72729492 13.75927734 C11.74233176 15.36741072 11.76276672 16.97550344 11.78881836 18.58349609 C11.82542822 20.90212064 11.84227722 23.22020049 11.85546875 25.5390625 C11.87095261 26.25180328 11.88643646 26.96454407 11.90238953 27.69888306 C11.90448729 33.99655218 10.17005655 37.82595674 5.93359375 42.40234375 C2.08618822 45.36416935 -1.67668594 45.26926359 -6.375 45.125 C-7.14779297 45.13595703 -7.92058594 45.14691406 -8.71679688 45.15820312 C-14.37704418 45.08643329 -17.74428628 43.70589081 -22.4375 40.5625 C-21.4475 38.5825 -20.4575 36.6025 -19.4375 34.5625 C-18.674375 34.871875 -17.91125 35.18125 -17.125 35.5 C-11.75786655 37.62188997 -7.1837922 38.23133073 -1.4375 37.5625 C1.92758112 35.42854612 2.4184547 34.1866963 3.3125 30.3125 C3.395 29.405 3.4775 28.4975 3.5625 27.5625 C2.85996094 28.04847656 2.15742188 28.53445313 1.43359375 29.03515625 C-3.34908853 31.57941308 -8.15238764 31.2141873 -13.4375 30.5625 C-17.47404111 28.5796377 -20.0875056 26.39670139 -22.4375 22.5625 C-23.99313239 17.89560284 -24.15078405 13.42641787 -23.4375 8.5625 C-18.73408225 -0.48628986 -9.23713955 -3.86280381 0 0 Z " fill="#070F3D" transform="translate(283.4375,300.4375)"/>
<path d="M0 0 C2.31 0 4.62 0 7 0 C7 15.18 7 30.36 7 46 C4.69 46 2.38 46 0 46 C-0.33 45.01 -0.66 44.02 -1 43 C-1.598125 43.495 -2.19625 43.99 -2.8125 44.5 C-7.52120856 46.71586285 -11.88097458 46.67751807 -17 46 C-21.45146251 43.81473658 -24.18885145 41.0605479 -27 37 C-28.67517931 31.97446208 -29.00081137 26.74521623 -27.1640625 21.70703125 C-24.27311337 16.5363068 -20.66198405 13.71804478 -15 12 C-9.72544077 11.36341527 -6.54207343 12.29638487 -2 15 C-1.67 15.33 -1.34 15.66 -1 16 C-0.67 10.72 -0.34 5.44 0 0 Z " fill="#060E3C" transform="translate(242,287)"/>
<path d="M0 0 C3.85220735 2.64082139 6.37450751 5.81102252 7.86328125 10.27734375 C7.86328125 12.58734375 7.86328125 14.89734375 7.86328125 17.27734375 C-0.71671875 17.27734375 -9.29671875 17.27734375 -18.13671875 17.27734375 C-15.63615282 22.25356118 -15.63615282 22.25356118 -12.13671875 24.27734375 C-6.97727906 24.67422373 -2.97605416 23.8575349 1.86328125 22.27734375 C2.85328125 23.26734375 3.84328125 24.25734375 4.86328125 25.27734375 C3.87652388 27.96850021 3.27991631 29.06529293 0.68359375 30.38671875 C-5.62616984 32.37927567 -12.7181463 32.42298333 -18.69921875 29.58984375 C-23.77943162 24.77015462 -26.24588304 21.14408669 -26.57421875 14.08984375 C-26.51842445 8.824257 -25.35982234 5.82282391 -21.91015625 1.87109375 C-15.23381513 -4.1287899 -7.52730438 -4.10713113 0 0 Z " fill="#0A123F" transform="translate(332.13671875,301.72265625)"/>
<path d="M0 0 C4.90181096 2.23591377 7.62932422 5.1674686 10 10 C10 12.97 10 15.94 10 19 C1.75 19 -6.5 19 -15 19 C-14.67 20.65 -14.34 22.3 -14 24 C-10.15769947 26.37318562 -6.42145069 26.32156005 -2 26 C-0.65909241 25.34870203 0.67592331 24.68486725 2 24 C4.125 24.125 4.125 24.125 6 25 C7.25 27.0625 7.25 27.0625 8 29 C1.67744787 33.70515507 -4.27245788 33.94523529 -12 33 C-16.28287939 31.74556912 -18.6192227 29.46864899 -21.4375 26 C-23.9444196 20.97530833 -23.74320523 15.45269957 -23 10 C-18.3190156 -0.08212024 -10.19792459 -1.2731167 0 0 Z " fill="#09113E" transform="translate(371,300)"/>
<path d="M0 0 C2.64 0 5.28 0 8 0 C8.02505615 0.65073486 8.0501123 1.30146973 8.07592773 1.97192383 C8.19193702 4.91898046 8.31464115 7.8657213 8.4375 10.8125 C8.47681641 11.83666016 8.51613281 12.86082031 8.55664062 13.91601562 C8.61948242 15.39038086 8.61948242 15.39038086 8.68359375 16.89453125 C8.72025146 17.80050049 8.75690918 18.70646973 8.79467773 19.63989258 C8.9208205 22.15048782 8.9208205 22.15048782 10 25 C11.58179615 25.10867302 13.16577153 25.18589827 14.75 25.25 C15.63171875 25.29640625 16.5134375 25.3428125 17.421875 25.390625 C20.06182909 25.15446682 20.06182909 25.15446682 22.28125 23.65625 C25.00121854 19.45266225 24.67813967 15.15610039 24.75 10.25 C24.77964844 9.26644531 24.80929688 8.28289062 24.83984375 7.26953125 C24.91042411 4.84627224 24.96317701 2.42396846 25 0 C27.64 0 30.28 0 33 0 C33 10.89 33 21.78 33 33 C30.36 33 27.72 33 25 33 C24.67 32.34 24.34 31.68 24 31 C23.46117187 31.32097656 22.92234375 31.64195312 22.3671875 31.97265625 C17.80009377 33.95474478 12.86572447 33.63748797 8 33 C4.52002655 31.39283669 2.55522967 29.13897243 0.86376953 25.66918945 C-0.0728875 22.77476569 -0.22922522 20.5156572 -0.1953125 17.48046875 C-0.18564453 15.9480957 -0.18564453 15.9480957 -0.17578125 14.38476562 C-0.15902344 13.32966797 -0.14226562 12.27457031 -0.125 11.1875 C-0.11597656 10.11306641 -0.10695312 9.03863281 -0.09765625 7.93164062 C-0.07415306 5.28753146 -0.04129575 2.64388128 0 0 Z " fill="#0B1340" transform="translate(171,300)"/>
<path d="M0 0 C3.81850682 1.69711414 5.46786489 3.15233039 7 7 C7.32809026 10.82088448 7.05665367 14.50622901 4.80078125 17.6953125 C2.32127915 19.97307033 0.24125823 20.9606109 -3.0625 21.5 C-6.44028276 20.92505825 -8.33017752 20.15069033 -11 18 C-13.2852526 14.08242412 -13.47867427 10.46762648 -13 6 C-9.27625236 0.29025362 -6.72149163 -0.45569435 0 0 Z " fill="#F6F6F9" transform="translate(235,306)"/>
<path d="M0 0 C3.4185354 0.79889686 5.05365451 2.80995577 7.15625 5.50390625 C7.48625 5.83390625 7.81625 6.16390625 8.15625 6.50390625 C8.5787653 11.15157457 7.96025795 13.76522899 5.15625 17.50390625 C1.44039673 19.98114177 -1.53874733 20.26599712 -5.84375 19.50390625 C-8.83639813 18.20604201 -9.65748741 17.18207793 -11.84375 14.50390625 C-12.64257896 11.32583134 -12.59239008 8.68850597 -11.84375 5.50390625 C-8.72709274 0.57757703 -5.54832131 -0.28666327 0 0 Z " fill="#F5F5F8" transform="translate(279.84375,305.49609375)"/>
<path d="M0 0 C2.89684158 -0.10829314 5.78961019 -0.18743954 8.6875 -0.25 C9.50412109 -0.28351563 10.32074219 -0.31703125 11.16210938 -0.3515625 C15.28916309 -0.41839738 17.44140777 -0.34132208 21.04296875 1.859375 C23 4 23 4 23.625 6.5 C22.70706678 10.17173289 21.21263781 11.03695045 18 13 C14.87754711 13.47679914 11.8366958 13.37924876 8.6875 13.25 C7.85154297 13.23195313 7.01558594 13.21390625 6.15429688 13.1953125 C4.10236772 13.14841126 2.05103244 13.07667411 0 13 C0 8.71 0 4.42 0 0 Z " fill="#F0F1F5" transform="translate(130,314)"/>
<path d="M0 0 C2.77141717 -0.08089542 5.54047819 -0.14044062 8.3125 -0.1875 C9.09818359 -0.21263672 9.88386719 -0.23777344 10.69335938 -0.26367188 C11.45068359 -0.27333984 12.20800781 -0.28300781 12.98828125 -0.29296875 C14.03302612 -0.31653442 14.03302612 -0.31653442 15.09887695 -0.34057617 C17.60672777 0.10869208 18.46857107 0.99763252 20 3 C20.4375 6 20.4375 6 20 9 C17.45039165 11.82631003 15.95612428 12.00330389 12.109375 12.29296875 C10.65595991 12.27314945 9.20268833 12.23754845 7.75 12.1875 C6.63238281 12.16719727 6.63238281 12.16719727 5.4921875 12.14648438 C3.66114584 12.11127204 1.83047831 12.05746851 0 12 C0 8.04 0 4.08 0 0 Z " fill="#F4F4F7" transform="translate(130,296)"/>
<path d="M0 0 C0.66 0 1.32 0 2 0 C3.60632723 3.21265446 3.47931944 6.51521812 3 10 C0.98497111 13.75212276 -0.45466142 15.63644095 -4 18 C-6.56312249 18.19261629 -9.0266307 18.27700831 -11.58984375 18.2734375 C-13.1113355 18.29372475 -14.63281983 18.3145755 -16.15429688 18.3359375 C-18.54848509 18.35854505 -20.94237983 18.37501192 -23.33666992 18.38085938 C-25.65076478 18.39038534 -27.96354394 18.42415792 -30.27734375 18.4609375 C-30.99099594 18.45589203 -31.70464813 18.45084656 -32.43992615 18.44564819 C-35.87550433 18.51358547 -37.69781466 18.7681315 -40.45825195 20.88623047 C-42.30212026 23.41421334 -42.43166357 24.66171933 -42.25 27.75 C-42.19585937 28.94882812 -42.19585937 28.94882812 -42.140625 30.171875 C-42.09421875 30.77515625 -42.0478125 31.3784375 -42 32 C-41.34 32.33 -40.68 32.66 -40 33 C-40.99 33 -41.98 33 -43 33 C-45.4434877 29.33476845 -45.84707648 26.26029643 -45 22 C-42.5625 19.0625 -42.5625 19.0625 -40 17 C-39.67 16.67 -39.34 16.34 -39 16 C-36.5278318 15.86467691 -34.0796251 15.78947957 -31.60546875 15.75390625 C-30.07746844 15.72095804 -28.54947379 15.68774656 -27.02148438 15.65429688 C-24.60542842 15.60693285 -22.18939381 15.56253083 -19.77319336 15.52319336 C-17.44620132 15.48340554 -15.11969308 15.43186588 -12.79296875 15.37890625 C-12.07304245 15.3704921 -11.35311615 15.36207794 -10.6113739 15.35340881 C-6.94637731 15.26333933 -4.0728066 15.10428132 -1 13 C1.11490956 9.96387216 1.15407596 7.84771655 0.625 4.25 C0.51414063 3.45078125 0.40328125 2.6515625 0.2890625 1.828125 C0.19367188 1.22484375 0.09828125 0.6215625 0 0 Z " fill="#8C74E5" transform="translate(246,233)"/>
<path d="M0 0 C3.54326134 0.74395879 5.13315931 2.60053146 7.1953125 5.4609375 C7.1953125 6.4509375 7.1953125 7.4409375 7.1953125 8.4609375 C0.9253125 8.4609375 -5.3446875 8.4609375 -11.8046875 8.4609375 C-10.05168464 1.44892606 -6.95785527 -0.29852184 0 0 Z " fill="#E9EAF0" transform="translate(366.8046875,305.5390625)"/>
<path d="M0 0 C3.58245688 0.68386655 5.15590754 2.54816409 7.23046875 5.42578125 C7.23046875 6.41578125 7.23046875 7.40578125 7.23046875 8.42578125 C0.96046875 8.42578125 -5.30953125 8.42578125 -11.76953125 8.42578125 C-8.95277592 1.38389292 -7.42561159 -0.23015762 0 0 Z " fill="#E9EBF0" transform="translate(324.76953125,305.57421875)"/>
<path d="M0 0 C0 0.33 0 0.66 0 1 C26.73 1.33 53.46 1.66 81 2 C81 2.33 81 2.66 81 3 C47.34 3 13.68 3 -21 3 C-21 2.67 -21 2.34 -21 2 C-18.81347261 1.66034526 -16.62571975 1.32857523 -14.4375 1 C-13.21933594 0.814375 -12.00117188 0.62875 -10.74609375 0.4375 C-7.12372152 0.01444923 -3.64287954 -0.07501425 0 0 Z " fill="#BFAFF5" transform="translate(237,157)"/>
<path d="M0 0 C2.9375 0.8125 2.9375 0.8125 4.9375 3.8125 C4.75 6.875 4.75 6.875 3.9375 9.8125 C0.71606724 11.96012184 -0.3220467 12.373568 -4.0625 11.8125 C-5.9375 10.1875 -5.9375 10.1875 -7.0625 7.8125 C-6.9375 4.6875 -6.9375 4.6875 -6.0625 1.8125 C-3.0625 -0.1875 -3.0625 -0.1875 0 0 Z " fill="#8466F0" transform="translate(295.0625,208.1875)"/>
<path d="M0 0 C1.32 0.66 2.64 1.32 4 2 C1.69 2.66 -0.62 3.32 -3 4 C-3 4.66 -3 5.32 -3 6 C-3.66 6 -4.32 6 -5 6 C-5 14.91 -5 23.82 -5 33 C5.56 33 16.12 33 27 33 C27 33.33 27 33.66 27 34 C16.11 34 5.22 34 -6 34 C-6.12375 29.318125 -6.2475 24.63625 -6.375 19.8125 C-6.42962402 18.34401611 -6.48424805 16.87553223 -6.54052734 15.36254883 C-6.6610703 5.99065769 -6.6610703 5.99065769 -4.63769531 2.95849609 C-2.9765625 1.57421875 -2.9765625 1.57421875 0 0 Z " fill="#8369E3" transform="translate(186,157)"/>
<path d="M0 0 C0 0.33 0 0.66 0 1 C2.97 1.33 5.94 1.66 9 2 C9 2.33 9 2.66 9 3 C-0.9 3 -10.8 3 -21 3 C-21 2.67 -21 2.34 -21 2 C-18.81347261 1.66034526 -16.62571975 1.32857523 -14.4375 1 C-13.21933594 0.814375 -12.00117188 0.62875 -10.74609375 0.4375 C-7.12372152 0.01444923 -3.64287954 -0.07501425 0 0 Z " fill="#CEBDFB" transform="translate(237,157)"/>
<path d="M0 0 C1.32 0.33 2.64 0.66 4 1 C3.34 1.474375 2.68 1.94875 2 2.4375 C-0.89658976 6.14875563 -0.34969446 9.45397207 0 14 C0.66 14.33 1.32 14.66 2 15 C1.01 15 0.02 15 -1 15 C-3.45416273 11.3187559 -3.59384154 8.27738037 -3 4 C-1.5 1.5 -1.5 1.5 0 0 Z " fill="#8469E7" transform="translate(204,251)"/>
<path d="M0 0 C0 3 0 3 -1.375 4.4375 C-1.91125 4.953125 -2.4475 5.46875 -3 6 C-4.17574711 8.09989652 -4.17574711 8.09989652 -5 10 C-5.33 9.01 -5.66 8.02 -6 7 C-2.73239437 1.36619718 -2.73239437 1.36619718 0 0 Z " fill="#1A2046" transform="translate(221,302)"/>
<path d="M0 0 C0 3 0 3 -2 5.1875 C-2.66 5.785625 -3.32 6.38375 -4 7 C-4.66 6.67 -5.32 6.34 -6 6 C-2.25 1.125 -2.25 1.125 0 0 Z " fill="#192147" transform="translate(314,301)"/>
</svg>
