<svg xmlns="http://www.w3.org/2000/svg" width="200" height="200" viewBox="0 0 200 200">
  <!-- Gradient Background -->
  <defs>
    <linearGradient id="logoGradient" x1="0%" y1="0%" x2="100%" y2="100%">
      <stop offset="0%" style="stop-color:#6750A4;stop-opacity:1" />
      <stop offset="100%" style="stop-color:#9A82DB;stop-opacity:1" />
    </linearGradient>
    <filter id="shadow" x="-20%" y="-20%" width="140%" height="140%">
      <feGaussianBlur in="SourceAlpha" stdDeviation="3" />
      <feOffset dx="0" dy="2" result="offsetblur" />
      <feComponentTransfer>
        <feFuncA type="linear" slope="0.3" />
      </feComponentTransfer>
      <feMerge>
        <feMergeNode />
        <feMergeNode in="SourceGraphic" />
      </feMerge>
    </filter>
  </defs>
  
  <!-- Main Circle -->
  <circle cx="100" cy="100" r="85" fill="url(#logoGradient)" filter="url(#shadow)" />
  
  <!-- Wallet/Purse Shape -->
  <path d="M60,80 L140,80 Q150,80 150,90 L150,140 Q150,150 140,150 L60,150 Q50,150 50,140 L50,90 Q50,80 60,80 Z" 
        fill="#FFFFFF" 
        opacity="0.95" />
  
  <!-- Card slot -->
  <path d="M150,105 L170,105 Q175,105 175,110 L175,120 Q175,125 170,125 L150,125 Z" 
        fill="#FFFFFF" 
        opacity="0.95" />
  
  <!-- Card readers -->
  <rect x="155" y="110" width="15" height="3" rx="1" fill="#6750A4" opacity="0.7" />
  <rect x="155" y="117" width="15" height="3" rx="1" fill="#6750A4" opacity="0.7" />
  
  <!-- Coins -->
  <circle cx="75" cy="115" r="18" fill="#FFD700" opacity="0.9" />
  <circle cx="75" cy="115" r="14" fill="#FFEA80" opacity="0.9" />
  <path d="M75,108 L75,122 M70,115 L80,115" stroke="#FFB700" stroke-width="2" />
  
  <circle cx="105" cy="125" r="15" fill="#FFD700" opacity="0.8" />
  <circle cx="105" cy="125" r="11" fill="#FFEA80" opacity="0.8" />
  <path d="M105,119 L105,131 M101,125 L109,125" stroke="#FFB700" stroke-width="2" />
  
  <circle cx="130" cy="110" r="12" fill="#FFD700" opacity="0.7" />
  <circle cx="130" cy="110" r="8" fill="#FFEA80" opacity="0.7" />
  <path d="M130,106 L130,114 M126,110 L134,110" stroke="#FFB700" stroke-width="2" />
  
  <!-- B for Budgee -->
  <path d="M75,60 C75,60 85,60 95,60 C105,60 115,65 115,75 C115,82 110,87 102,88 C110,89 118,94 118,104 C118,114 108,120 98,120 C88,120 75,120 75,120 Z" 
        fill="#6750A4"
        opacity="0.9" />
  <path d="M75,60 L75,120" stroke="#6750A4" stroke-width="3" />
  <path d="M75,60 C75,60 85,60 95,60 C105,60 115,65 115,75 C115,82 110,87 102,88 C110,89 118,94 118,104 C118,114 108,120 98,120 C88,120 75,120 75,120" 
        fill="none" 
        stroke="#FFFFFF" 
        stroke-width="2"
        stroke-linecap="round" />
</svg>
